<svg width="726" height="726" viewBox="0 0 726 726" fill="none" xmlns="http://www.w3.org/2000/svg">
<path fill-rule="evenodd" clip-rule="evenodd" d="M188.362 353.046C197.342 345.077 203 333.45 203 320.5C203 296.476 183.524 277 159.5 277C135.476 277 116 296.476 116 320.5C116 333.45 121.658 345.077 130.638 353.046C114.307 357.722 99.2731 366.337 87.0216 378.289C67.7991 397.043 57 422.478 57 449H159.5H262C262 422.478 251.201 397.043 231.978 378.289C219.727 366.337 204.693 357.722 188.362 353.046ZM189 320.5C189 336.24 176.016 349 160 349C143.984 349 131 336.24 131 320.5C131 304.76 143.984 292 160 292C176.016 292 189 304.76 189 320.5ZM243 434.5C243 425.636 240.853 416.858 236.682 408.669C232.511 400.479 226.397 393.038 218.69 386.77C210.983 380.502 201.833 375.53 191.763 372.138C181.693 368.746 170.9 367 160 367C149.1 367 138.307 368.746 128.237 372.138C118.167 375.53 109.017 380.502 101.31 386.77C93.6029 393.038 87.4891 400.479 83.318 408.669C79.1469 416.858 77 425.636 77 434.5H160H243Z" fill="green"/>
<path fill-rule="evenodd" clip-rule="evenodd" d="M371 367.309C374.333 365.384 374.333 360.573 371 358.648L324 331.513V324.007C324 320.158 328.167 317.753 331.5 319.677L399 358.648C402.333 360.573 402.333 365.384 399 367.309L331.5 406.28C328.167 408.204 324 405.799 324 401.95V394.444L371 367.309Z" fill="green"/>
<path fill-rule="evenodd" clip-rule="evenodd" d="M595.362 353.046C604.342 345.077 610 333.45 610 320.5C610 296.476 590.524 277 566.5 277C542.476 277 523 296.476 523 320.5C523 333.45 528.658 345.077 537.638 353.046C521.307 357.722 506.273 366.337 494.022 378.289C474.799 397.043 464 422.478 464 449L566.5 449H669C669 422.478 658.201 397.043 638.978 378.289C626.727 366.337 611.693 357.722 595.362 353.046ZM596 320.5C596 336.24 583.016 349 567 349C550.984 349 538 336.24 538 320.5C538 304.76 550.984 292 567 292C583.016 292 596 304.76 596 320.5ZM650 434.5C650 425.636 647.853 416.858 643.682 408.669C639.511 400.479 633.397 393.038 625.69 386.77C617.983 380.502 608.833 375.53 598.763 372.138C588.693 368.746 577.9 367 567 367C556.1 367 545.307 368.746 535.237 372.138C525.167 375.53 516.017 380.502 508.31 386.77C500.603 393.038 494.489 400.479 490.318 408.669C486.147 416.858 484 425.636 484 434.5L567 434.5H650Z" fill="green"/>
</svg>
