<svg width="18" height="18" viewBox="0 0 18 18" fill="none" xmlns="http://www.w3.org/2000/svg">
<rect width="18" height="18" fill="#f5f5f5"/>
<path d="M15.9487 7.27661H13.2943C13.0756 7.27661 12.8984 7.45404 12.8984 7.67277V10.3269C12.8984 10.5456 13.0756 10.7228 13.2943 10.7228H15.9487C16.1677 10.7228 16.3446 10.5456 16.3446 10.3269V7.67277C16.3446 7.45404 16.1677 7.27661 15.9487 7.27661ZM15.5528 9.93101H13.6905V8.06866H15.5528V9.93101Z" fill="#303030"/>
<path d="M2.39589 4.4459H5.05028C5.26929 4.4459 5.44617 4.26874 5.44617 4.05001V1.39589C5.44617 1.17716 5.26929 1 5.05028 1H2.39589C2.17716 1 2 1.17716 2 1.39589V4.05001C2 4.26874 2.17716 4.4459 2.39589 4.4459ZM2.79178 1.79178H4.65412V3.65412H2.79178V1.79178V1.79178Z" fill="#303030"/>
<path d="M5.05028 13.5537H2.39589C2.17716 13.5537 2 13.7309 2 13.9496V16.604C2 16.8227 2.17716 16.9999 2.39589 16.9999H5.05028C5.26929 16.9999 5.44617 16.8227 5.44617 16.604V13.9496C5.44617 13.7309 5.26902 13.5537 5.05028 13.5537ZM4.65439 16.2078H2.79205V14.3455H4.65439V16.2078Z" fill="#303030"/>
<path d="M6.67909 3.11893H14.2252V5.22772L13.5742 4.57641C13.4196 4.42181 13.169 4.42181 13.0142 4.57641C12.8595 4.73075 12.8595 4.98154 13.0142 5.13642L14.3401 6.46267C14.3768 6.49962 14.4206 6.52951 14.4697 6.54962L14.4703 6.54989C14.4936 6.55967 14.5181 6.56701 14.5436 6.57217C14.5689 6.57733 14.5947 6.58005 14.6214 6.58005C14.7314 6.58005 14.8308 6.53494 14.9023 6.46267L16.2286 5.13642C16.3829 4.98181 16.3829 4.73102 16.2286 4.57641C16.0739 4.42181 15.8234 4.42181 15.6685 4.57641L15.0172 5.22799V2.72304C15.0172 2.50431 14.8404 2.32715 14.6214 2.32715H6.67909C6.46009 2.32715 6.2832 2.50431 6.2832 2.72304C6.2832 2.94177 6.46009 3.11893 6.67909 3.11893Z" fill="#303030"/>
<path d="M4.00302 5.24005C3.92884 5.16587 3.82804 5.12402 3.72288 5.12402C3.61773 5.12402 3.51719 5.1656 3.44329 5.24005L2.11595 6.56738C1.96135 6.72199 1.96135 6.97251 2.11595 7.12739C2.19312 7.20483 2.29447 7.24341 2.39555 7.24341C2.4969 7.24341 2.59825 7.20483 2.67542 7.12739L3.32672 6.47608V12.6389C3.32672 12.8576 3.50388 13.0348 3.72261 13.0348C3.94162 13.0348 4.1185 12.8576 4.1185 12.6389V6.47581L4.76953 7.12711C4.92414 7.28172 5.17466 7.28172 5.32954 7.12711C5.48415 6.97278 5.48415 6.72199 5.32954 6.56711L4.00302 5.24005Z" fill="#303030"/>
<path d="M14.6216 11.4199C14.4026 11.4199 14.2257 11.5971 14.2257 11.8158V14.8805H7.63499L8.28602 14.2295C8.44063 14.0751 8.44063 13.8243 8.28602 13.6695C8.13142 13.5151 7.88089 13.5151 7.72629 13.6695L6.39923 14.9965V14.9968C6.36254 15.0335 6.33347 15.0772 6.31336 15.1259C6.31255 15.1283 6.31228 15.1307 6.31119 15.1327C6.29407 15.1769 6.28347 15.225 6.2832 15.2756C6.2832 15.2758 6.2832 15.2764 6.2832 15.2769C6.2832 15.328 6.2938 15.3761 6.31146 15.4209C6.31228 15.4228 6.31255 15.425 6.31309 15.4266C6.33347 15.4764 6.36336 15.5207 6.40058 15.5576L7.72629 16.8833C7.80345 16.9608 7.9048 16.9993 8.00588 16.9993C8.10723 16.9993 8.20858 16.9608 8.28575 16.8833C8.44036 16.729 8.44036 16.4782 8.28575 16.3233L7.63472 15.6723H14.6211C14.8401 15.6723 15.017 15.4951 15.017 15.2764V11.8158C15.0175 11.5971 14.8406 11.4199 14.6216 11.4199Z" fill="#303030"/>
</svg>
